<svg version="1" id="Layer_1" xmlns="http://www.w3.org/2000/svg" viewBox="0 0 383.3 18.9">
    <style>.Arched_x0020_Green{fill:url(#SVGID_1_);stroke:#fff;stroke-width:.25;stroke-miterlimit:1}.st0{fill:#fff}
    </style>
    <linearGradient id="SVGID_1_" gradientUnits="userSpaceOnUse" x1="-204.364" y1="315.906" x2="-203.657" y2="315.199">
        <stop offset="0" stop-color="#20ac4b"/>
        <stop offset=".983" stop-color="#19361a"/>
    </linearGradient>
    <path class="st0"
          d="M106.9 6.7c0-4.6-4.1-5.4-8.3-5.4H85.9v17h7V12h.6l5.3 6.3h9.9l-7.2-6.7c3.4-.5 5.4-2.3 5.4-4.9zM97.1 9h-4.2V5h4.2c1.5 0 2.5.7 2.5 2s-1.1 2-2.5 2zM136.6.9c3.1 0 5.5.5 6.7.9V6c-1.3-.3-3.1-.7-5.5-.7-1.2 0-6.7.2-6.7 4.7s5.5 4.5 6.7 4.5c2.2 0 4.2-.4 5.5-.7V18c-1.3.5-3.6.9-6.7.9-3.7 0-13.2-1-13.2-8.9 0-8 9.5-9.1 13.2-9.1zm-24.9.4h7.4v17h-7.4v-17zm-48.5 0h17.6v3.5H71V8h9.8v3.3H71v3.3h9.8v3.7H63.2v-17zm-54.5 0L0 18.4h7.2L8.8 15h9l1.6 3.4H27l-8.7-17H8.7zm1.9 9.8l2.6-5.5 2.6 5.5h-5.2zm44.7-9.8l4.1 17h-7.1L50 8.7l-4.5 9.7H41l-4.5-9.7-2.3 9.7h-6.6l4.1-17h7.6l4 8.4 4-8.4h8zm200.9 8.3l7.9 8.8h-8.4l-4.6-5.5-4.6 5.5h-8.4l7.9-8.8-7.1-8.3h8.5l3.7 4.5 3.7-4.5h8.5l-7.1 8.3zm61.6-8.3h17.6v3.5h-9.8V8h9.8v3.3h-9.8v3.3h9.8v3.7h-17.6v-17zm41.8 12c0 1.7-1.4 5.6-10.1 5.6-7.1 0-9.4-1.4-10.9-2.3l1.9-3c3 1.2 5.3 1.2 7 1.2 1.8 0 3.5-.4 3.5-1.5 0-1.2-1.1-1.4-3.8-1.7-2.5-.2-7.7-.9-7.8-4.9 0-3.9 3.8-5.8 9.7-5.8 3.2 0 7.2.5 10 2l-2.4 3c-2.2-.8-3.9-.9-5.6-.9-1.8 0-3.7.3-3.7 1.6s1.9 1.3 3.3 1.5c1.8.2 4.1.2 5.9 1.1 2.4.9 3 2.3 3 4.1zm23.7 0c0 1.7-1.4 5.6-10.1 5.6-7.1 0-9.7-1.4-11.3-2.3l2.3-3c3 1.2 5.3 1.2 7 1.2 1.8 0 3.5-.4 3.5-1.5 0-1.2-1.1-1.4-3.8-1.7-2.5-.2-8.1-.9-8.1-4.9 0-3.9 4.1-5.8 10.1-5.8 3.2 0 7.2.5 10 2l-2.4 3c-2.2-.8-3.9-.9-5.6-.9-1.8 0-3.7.3-3.7 1.6s2 1.3 3.3 1.5c1.8.2 4.1.2 5.9 1.1 2.2.9 2.9 2.3 2.9 4.1zm-70.6-6.6c0-4.6-4.1-5.4-8.3-5.4h-12.7v17h7V12h.6l5.3 6.3h9.9l-7.2-6.7c3.5-.5 5.4-2.3 5.4-4.9zM302.9 9h-4.2V5h4.2c1.5 0 2.5.7 2.5 2 .1 1.3-1 2-2.5 2zM193.7 1.3h7v17h-8.1l-10.4-9.6v9.6h-7v-17h8l10.5 9.7V1.3zm-39.6 0l-8.7 17h7.2l1.6-3.4h9l1.6 3.4h7.6l-8.7-17h-9.6zm1.9 9.8l2.6-5.5 2.6 5.5H156zm60.8-9.8h17.6v3.5h-9.8V8h9.8v3.3h-9.8v3.3h9.8v3.7h-17.6v-17zm63.2 0h-12.2v17h7v-6.1h4.6c2.1 0 3.9-.2 5.6-.9 1.9-.8 3.3-2.2 3.3-4.7 0-4.5-4.1-5.3-8.3-5.3zm-1.6 7.4h-3.7V4.8h3.7c1.5 0 2.5.5 2.5 1.9.1 1.3-1 2-2.5 2z"/>
</svg>
